<?xml version="1.0" encoding="UTF-8" standalone="no"?>
<!-- Created with Inkscape (http://www.inkscape.org/) -->

<svg
   xmlns:dc="http://purl.org/dc/elements/1.1/"
   xmlns:cc="http://creativecommons.org/ns#"
   xmlns:rdf="http://www.w3.org/1999/02/22-rdf-syntax-ns#"
   xmlns:svg="http://www.w3.org/2000/svg"
   xmlns="http://www.w3.org/2000/svg"
   xmlns:sodipodi="http://sodipodi.sourceforge.net/DTD/sodipodi-0.dtd"
   xmlns:inkscape="http://www.inkscape.org/namespaces/inkscape"
   id="svg2"
   sodipodi:version="0.32"
   inkscape:version="0.46+devel"
   width="962"
   height="768"
   version="1.0"
   sodipodi:docname="gringer_baby_01.svg"
   inkscape:output_extension="org.inkscape.output.svg.inkscape">
  <title
     id="title2842">Baby silhouette</title>
  <metadata
     id="metadata8">
    <rdf:RDF>
      <cc:Work
         rdf:about="">
        <dc:format>image/svg+xml</dc:format>
        <dc:type
           rdf:resource="http://purl.org/dc/dcmitype/StillImage" />
        <dc:title>Baby silhouette</dc:title>
        <dc:date>2009-Dec-22</dc:date>
        <dc:creator>
          <cc:Agent>
            <dc:title>David Eccles (gringer)</dc:title>
          </cc:Agent>
        </dc:creator>
        <cc:license
           rdf:resource="http://creativecommons.org/licenses/publicdomain/" />
      </cc:Work>
      <cc:License
         rdf:about="http://creativecommons.org/licenses/publicdomain/">
        <cc:permits
           rdf:resource="http://creativecommons.org/ns#Reproduction" />
        <cc:permits
           rdf:resource="http://creativecommons.org/ns#Distribution" />
        <cc:permits
           rdf:resource="http://creativecommons.org/ns#DerivativeWorks" />
      </cc:License>
    </rdf:RDF>
  </metadata>
  <defs
     id="defs6">
    <inkscape:perspective
       sodipodi:type="inkscape:persp3d"
       inkscape:vp_x="0 : 0.5 : 1"
       inkscape:vp_y="0 : 1000 : 0"
       inkscape:vp_z="1 : 0.5 : 1"
       inkscape:persp3d-origin="0.5 : 0.33333333 : 1"
       id="perspective10" />
  </defs>
  <sodipodi:namedview
     bordercolor="#666666"
     borderopacity="1"
     objecttolerance="10"
     gridtolerance="10"
     guidetolerance="10"
     inkscape:pageopacity="0"
     inkscape:pageshadow="2"
     inkscape:window-width="1280"
     inkscape:window-height="749"
     id="namedview4"
     showgrid="false"
     inkscape:zoom="0.44470387"
     inkscape:cx="57.122425"
     inkscape:cy="384"
     inkscape:window-x="0"
     inkscape:window-y="0"
     inkscape:current-layer="svg2" />
  <path
     style="fill:#000000"
     d="m 496.43304,764.60569 c -5.52068,-2.26985 -8.09458,-9.7185 -13.51531,-11.02904 -15.37303,-0.88905 -31.26662,0.0108 -45.61266,-6.63695 -11.50516,-3.67098 -23.45164,-8.61042 -30.0075,-19.4397 -7.45952,-5.23205 -8.10471,-25.03514 -18.66987,-20.16071 -13.78209,7.10224 -29.73924,11.86293 -45.14094,7.39264 -20.55669,-5.01196 -40.45842,-13.09108 -58.88396,-23.46598 -18.64336,-11.72501 -35.30495,-26.38282 -54.131,-37.79953 -12.10841,-2.11369 -8.26488,16.25761 -12.04481,23.60906 -3.65795,10.87625 -13.08095,18.72848 -15.37127,30.2725 -6.22996,6.93003 -16.79651,10.19219 -26.07262,9.32051 -10.26519,-2.7442 -17.80493,8.71921 -27.73562,10.89145 -14.39195,7.30126 -31.17114,7.47408 -46.77169,5.0708 C 90.646032,728.86872 82.154041,719.13162 70.811302,714.40833 58.713348,702.81427 52.614117,686.91745 45.709809,672.01277 c -4.556002,4.18175 -10.29989,11.0463 -16.897293,6.33854 C 20.443433,673.21484 28.477918,661.40758 20.161072,656.5885 15.295137,648.95682 8.6913043,642.46432 4.6263519,633.81174 -1.9316729,627.03707 1.2424299,616.95756 0.5,608.45439 0.74836634,603.58099 0.01389334,598.40395 0.84694656,593.71118 7.8574355,582.36538 17.346823,572.92726 26,562.90273 c 5.532301,-9.63611 9.779302,-19.91917 14.304872,-29.97603 6.393664,-10.53301 10.677614,-25.03508 23.579909,-29.28142 15.123582,-2.82796 26.43254,12.46114 30.053625,25.38813 1.990127,5.83108 5.500302,10.91625 8.916564,15.97731 6.8631,-26.44116 15.06617,-52.64182 27.12092,-77.22766 4.54735,-11.10596 6.84316,-23.21022 14.19404,-33.04963 8.11957,-13.90489 20.9276,-23.72129 32.96076,-33.97515 22.81682,-20.98843 53.53056,-28.88612 81.8978,-39.36418 11.49131,-3.70033 22.83643,-8.24764 34.74574,-10.39036 5.20659,0.11747 8.94676,6.3823 13.94564,2.27859 40.04508,-15.47833 80.38708,-30.40444 119.20383,-48.79812 19.13221,-10.78198 36.57465,-24.53604 56.29493,-34.22946 9.0061,-5.8557 26.90516,-2.03546 26.66999,-16.66095 2.96163,-9.73978 -0.79027,-19.46702 -7.57713,-25.8438 -7.39953,-15.27849 -15.18628,-30.79627 -16.90686,-47.96497 -3.03288,-26.49138 -0.18099,-53.88196 8.45649,-79.11059 4.8008,-9.796918 1.1151,-21.399109 8.49192,-30.052304 7.68909,-14.37563 18.06209,-29.112474 33.54602,-35.685904 19.48197,-5.926078 33.96594,-22.579284 54.21032,-26.8038044 22.22957,-8.28011903 46.3608,-8.00548537 69.73007,-7.43153244 11.65262,3.19189264 24.43547,2.30089624 35.36905,7.77007414 12.23858,5.6713417 24.34604,12.2003637 37.63407,15.0328587 8.89542,3.177471 20.23517,5.829529 27.79415,13.21389 11.03295,9.185499 23.43626,16.896986 33.78343,26.784215 10.94699,11.022139 17.93115,25.009705 26.54167,37.808817 6.25328,8.8366 10.91726,18.54974 12.40891,29.18183 1.17147,13.14997 0.0287,26.35212 -4.01604,38.94938 -2.22836,10.8865 -7.16279,21.48318 -7.0704,32.66908 3.91378,6.17 -10.77512,15.2772 1.11849,18.99115 5.82213,6.87666 -12.9378,4.50029 -8.96192,14.2155 -6.98313,10.13456 3.06144,18.99057 8.27726,27.0478 8.75846,10.16702 -0.70014,18.51897 -10.08608,22.01523 -5.1134,9.15312 -7.80968,22.00819 -21.38831,22.79112 -9.86647,2.29478 -25.19592,3.97548 -18.76304,18.08816 5.04875,5.38469 10.50311,19.24562 -0.55436,20.61609 -6.73066,-1.2828 -15.53313,-1.11343 -17.65404,7.15491 -6.59249,11.00379 3.9656,19.7266 8.65287,28.79663 9.74925,16.9464 10.53136,37.19266 19.70833,54.34525 13.88913,27.14606 26.12261,55.52595 44.56269,79.99809 9.68432,11.52583 23.35238,19.71621 29.68138,33.94791 11.34982,21.82529 18.03187,45.55019 25.45568,68.87161 6.99093,17.67159 12.48009,36.70957 24.78406,51.57365 7.61178,9.5453 21.04312,8.39101 31.52738,12.6281 10.21437,3.65551 30.50265,21.0622 21.97913,25.73996 -3.88014,2.12944 -7.09014,-2.49331 -9.38582,-0.36051 -4.98572,4.63201 2.70406,3.82003 -1.43799,7.22831 -4.47096,3.67892 -23.16255,0.23334 -34.97588,2.07216 -15.33484,-0.33551 -29.53009,-7.36591 -44.91137,-7.66594 -7.64259,-0.81127 -15.26426,-1.8006 -22.88493,-2.79308 -5.93799,7.31105 -11.57731,16.51879 -22.0201,17.15239 -6.56886,3.78808 -19.28777,-3.11645 -9.68128,-9.09048 9.16789,-9.76649 -3.23512,-19.46214 -2.32487,-29.93153 -1.44816,-4.77054 5.80256,-10.67508 0.74497,-13.87477 -15.00829,-13.01245 -25.72135,-29.98507 -39.75048,-43.95967 -11.40617,-11.80432 -19.1075,-26.38478 -25.7131,-41.23818 -5.21698,-8.07207 -15.445,-11.56277 -20.24976,-20.2066 -16.55202,-27.00637 -16.27123,-60.67008 -32.22027,-88.0143 -3.58998,-5.89708 -6.59709,-18.5983 -14.12365,-8.91662 -24.33479,16.35456 -41.18978,42.13921 -67.83567,55.26473 -15.23003,7.92757 -31.22942,14.88948 -43.98818,26.70512 -17.63867,13.88665 -33.90731,29.85841 -53.53099,40.97947 -13.31081,7.77078 -28.09021,12.24283 -42.68996,16.79027 1.15955,16.79664 4.83213,33.32504 7.37952,49.96042 5.73289,11.48887 11.46579,22.97774 17.19869,34.46661 24.79973,-0.44106 49.45135,3.8483 73.64554,8.86094 10.08879,3.58181 21.83188,9.35932 25.75935,19.90282 3.94168,8.45885 11.35316,23.26759 -3.24897,24.34572 -8.09081,12.01488 -18.77792,-4.03254 -25.64956,-9.28019 -8.81412,-1.0123 6.72328,15.96714 -5.55117,17.69714 -11.51047,2.62048 -17.81392,-10.98956 -28.42633,-9.93044 -8.30374,0.76864 -16.25121,3.39089 -24.25155,5.58375 -0.21926,5.91042 3.19608,15.62682 -4.81829,17.23739 -3.38292,0.21943 -6.51375,-1.51787 -9.24867,-3.31144 z"
     id="path2818"
     sodipodi:nodetypes="ccccccccccccccccccccccccccccccccccccccccccccccccccccccccccccccccsssccccccccccccccccccccccccccc" />
</svg>
